<svg width="100%" height="100%" viewBox="0 0 128 128" fill="none" xmlns="http://www.w3.org/2000/svg">
<path d="M71.021 44.568L71.568 43.749L72.105 42.941L73.314 41.128C73.462 40.905 73.402 40.605 73.181 40.456C72.956 40.307 72.656 40.367 72.507 40.591L71.212 42.535L70.667 43.352L70.114 44.18C68.362 43.501 66.409 43.12 64.346 43.12C62.285 43.12 60.332 43.501 58.58 44.18L58.03 43.352L57.485 42.535L56.188 40.59C56.04 40.367 55.739 40.307 55.515 40.455C55.293 40.603 55.233 40.904 55.381 41.127L56.589 42.94L57.128 43.748L57.675 44.567C53.56 46.483 50.777 50.113 50.777 54.268H77.919C77.919 50.114 75.136 46.484 71.021 44.568ZM58.532 50.391C57.727 50.391 57.077 49.74 57.077 48.937C57.077 48.134 57.727 47.484 58.532 47.484C59.335 47.484 59.985 48.134 59.985 48.937C59.985 49.74 59.335 50.391 58.532 50.391ZM70.163 50.391C69.36 50.391 68.71 49.74 68.71 48.937C68.71 48.134 69.36 47.484 70.163 47.484C70.968 47.484 71.618 48.134 71.618 48.937C71.618 49.74 70.968 50.391 70.163 50.391Z" fill="var(--theme-35-percent)"/>
<path d="M50.986 56.2079H50.777V58.6259V60.5989V77.5349C50.777 79.2279 52.153 80.6049 53.846 80.6049H56.062C55.988 80.8609 55.946 81.1319 55.946 81.4119V81.5739V82.5429V87.5529C55.946 89.1579 57.249 90.4609 58.855 90.4609C60.461 90.4609 61.763 89.1579 61.763 87.5529V82.5429V81.5739V81.4119C61.763 81.1329 61.72 80.8609 61.648 80.6049H67.048C66.974 80.8609 66.933 81.1319 66.933 81.4119V81.5739V82.5429V87.5529C66.933 89.1579 68.236 90.4609 69.841 90.4609C71.446 90.4609 72.749 89.1579 72.749 87.5529V82.5429V81.5739V81.4119C72.749 81.1329 72.708 80.8609 72.634 80.6049H74.849C76.542 80.6049 77.919 79.2279 77.919 77.5349V60.5989V58.6259V56.2079H77.71H50.986Z" fill="var(--theme-35-percent)"/>
<path d="M45.929 56.2079C44.323 56.2079 43.021 57.5089 43.021 59.1169V71.5559C43.021 73.1609 44.323 74.4639 45.929 74.4639C47.534 74.4639 48.837 73.1609 48.837 71.5559V59.1159C48.837 57.5089 47.535 56.2079 45.929 56.2079Z" fill="var(--theme-35-percent)"/>
<path d="M82.767 56.2079C81.16 56.2079 79.859 57.5089 79.859 59.1169V71.5559C79.859 73.1609 81.16 74.4639 82.767 74.4639C84.372 74.4639 85.673 73.1609 85.673 71.5559V59.1159C85.673 57.5089 84.372 56.2079 82.767 56.2079Z" fill="var(--theme-35-percent)"/>
<path d="M59.5 114C58.6716 114 58 114.672 58 115.5C58 116.328 58.6716 117 59.5 117H68C68.8284 117 69.5 116.328 69.5 115.5C69.5 114.672 68.8284 114 68 114H59.5ZM33.5 19H94.5V107.5H33.5V19ZM94.5 16H33.5V12C33.5 7.30558 37.3056 3.5 42 3.5H86C90.6944 3.5 94.5 7.30558 94.5 12V16ZM33.5 110.5H94.5V116C94.5 120.694 90.6944 124.5 86 124.5H42C37.3056 124.5 33.5 120.694 33.5 116V110.5Z" stroke="var(--theme-15-percent)" stroke-width="1" stroke-linecap="round"/>
</svg>
