<svg width="100%" height="100%" viewBox="0 0 128 128" fill="none" xmlns="http://www.w3.org/2000/svg">
<path d="M57.2625 54.3375H43.675C42.75 54.3375 42 55.1 42 56.05V67.175C42 68 42.575 68.6625 43.3375 68.825L56.5125 71.4625L57.375 71.6125C58.25 71.575 58.9625 70.8125 58.9625 69.925V56.05C58.9625 55.0875 58.1875 54.3375 57.2625 54.3375Z" fill="var(--theme-35-percent)"/>
<path d="M84.3 54.3375H63.275C62.35 54.3375 61.6 55.1 61.6 56.05V71.1125V71.1375C61.6 71.825 62.0125 72.4 62.5875 72.6625C62.6125 72.6875 62.6125 72.6875 62.6125 72.6875L63.275 72.825C63.3 72.825 63.3 72.825 63.3125 72.825L83.9 76.9375C83.925 76.95 83.9625 76.975 83.9875 76.975C84 76.975 84.0125 76.975 84.025 76.9625C84.1125 77.0125 84.2 77.0125 84.2875 77.0125C85.2125 77.0125 85.9875 76.2625 85.9875 75.325V56.05C86 55.0875 85.225 54.3375 84.3 54.3375Z" fill="var(--theme-35-percent)"/>
<path d="M84.3 29C84.2125 29 84.125 29 84.0375 29.05C84.025 29.0375 84.0125 29.0375 84 29.0375C83.975 29.0375 83.9375 29.05 83.9125 29.075L63.3125 33.175C63.2875 33.175 63.2875 33.175 63.275 33.175L62.6375 33.3125C62.6375 33.3125 62.6125 33.3125 62.5875 33.3375C62.0125 33.6 61.6 34.2 61.6 34.8875V49.95C61.6 50.9 62.35 51.6625 63.275 51.6625H84.3C85.225 51.6625 86 50.9 86 49.95V30.6875C86 29.7625 85.225 29 84.3 29Z" fill="var(--theme-35-percent)"/>
<path d="M57.375 34.375L56.5125 34.525L43.3375 37.175C42.575 37.3375 42 38 42 38.825V49.95C42 50.9 42.75 51.6625 43.675 51.6625H57.275C58.2 51.6625 58.975 50.9 58.975 49.95V36.0625C58.9625 35.175 58.2625 34.425 57.375 34.375Z" fill="var(--theme-35-percent)"/>
<path d="M3.5 89.5H124.5V101C124.5 105.694 120.694 109.5 116 109.5H12C7.30558 109.5 3.5 105.694 3.5 101V89.5ZM124.5 86.5H3.5V21C3.5 16.3056 7.30558 12.5 12 12.5H116C120.694 12.5 124.5 16.3056 124.5 21V86.5Z" stroke="var(--theme-15-percent)" stroke-width="1"/>
<path d="M64 110.5V119.5H103H25" stroke="var(--theme-15-percent)" stroke-width="1" stroke-linecap="round" stroke-linejoin="round"/>
<circle cx="64" cy="99" r="5" fill="var(--theme-35-percent)"/>
</svg>
